<svg width="78" height="41" viewBox="0 0 78 41" fill="none" xmlns="http://www.w3.org/2000/svg">
<rect x="2" y="2" width="74" height="37" rx="4" stroke="url(#paint0_angular_4_16)" stroke-width="4"/>
<line x1="3.05587" y1="2.30143" x2="40.0559" y2="25.3014" stroke="#3532F8" stroke-opacity="0.7" stroke-width="4"/>
<line x1="76.5153" y1="2.7252" x2="40.0988" y2="26.6711" stroke="#DF2F2F" stroke-opacity="0.6" stroke-width="4"/>
<path d="M31.18 29.18C30.47 29.18 29.815 29.05 29.215 28.79C28.625 28.52 28.14 28.14 27.76 27.65L29.11 26.03C29.4 26.41 29.705 26.7 30.025 26.9C30.345 27.09 30.69 27.185 31.06 27.185C32.05 27.185 32.545 26.605 32.545 25.445V20.45H28.855V18.5H34.96V25.31C34.96 26.61 34.64 27.58 34 28.22C33.36 28.86 32.42 29.18 31.18 29.18ZM39.3595 29V20.48H35.9995V18.5H45.1495V20.48H41.7895V29H39.3595ZM46.4569 29V18.5H48.8869V29H46.4569Z" fill="#2B2929"/>
<path d="M33.68 12.406C33.172 12.406 32.918 12.584 32.918 12.94C32.918 13.124 32.978 13.256 33.098 13.336C33.218 13.412 33.482 13.508 33.89 13.624C34.302 13.736 34.592 13.872 34.76 14.032C34.928 14.188 35.012 14.436 35.012 14.776C35.012 15.208 34.888 15.532 34.64 15.748C34.396 15.96 34.062 16.066 33.638 16.066C33.298 16.066 32.922 16.026 32.51 15.946L32.294 15.904L32.36 15.37C32.9 15.442 33.312 15.478 33.596 15.478C34.092 15.478 34.34 15.258 34.34 14.818C34.34 14.646 34.284 14.52 34.172 14.44C34.06 14.356 33.808 14.266 33.416 14.17C33.024 14.07 32.732 13.934 32.54 13.762C32.348 13.59 32.252 13.318 32.252 12.946C32.252 12.574 32.372 12.294 32.612 12.106C32.856 11.914 33.192 11.818 33.62 11.818C33.928 11.818 34.292 11.854 34.712 11.926L34.922 11.962L34.868 12.502C34.308 12.438 33.912 12.406 33.68 12.406ZM37.4718 13H38.1198V16H37.4718V15.814C37.1798 15.982 36.9098 16.066 36.6618 16.066C36.2498 16.066 35.9738 15.956 35.8338 15.736C35.6938 15.512 35.6238 15.122 35.6238 14.566V13H36.2778V14.572C36.2778 14.932 36.3078 15.174 36.3678 15.298C36.4278 15.422 36.5678 15.484 36.7878 15.484C37.0038 15.484 37.2018 15.444 37.3818 15.364L37.4718 15.328V13ZM38.9116 16V13H39.5596V13.36C39.8996 13.14 40.2396 12.998 40.5796 12.934V13.588C40.2356 13.656 39.9416 13.744 39.6976 13.852L39.5656 13.906V16H38.9116ZM43.2996 13.924V15.292C43.3036 15.38 43.3256 15.446 43.3656 15.49C43.4096 15.53 43.4756 15.556 43.5636 15.568L43.5456 16.066C43.2016 16.066 42.9356 15.992 42.7476 15.844C42.4276 15.992 42.1056 16.066 41.7816 16.066C41.1856 16.066 40.8876 15.748 40.8876 15.112C40.8876 14.808 40.9676 14.588 41.1276 14.452C41.2916 14.316 41.5416 14.234 41.8776 14.206L42.6516 14.14V13.924C42.6516 13.764 42.6156 13.652 42.5436 13.588C42.4756 13.524 42.3736 13.492 42.2376 13.492C41.9816 13.492 41.6616 13.508 41.2776 13.54L41.0856 13.552L41.0616 13.09C41.4976 12.986 41.8976 12.934 42.2616 12.934C42.6296 12.934 42.8936 13.014 43.0536 13.174C43.2176 13.33 43.2996 13.58 43.2996 13.924ZM41.9556 14.668C41.6796 14.692 41.5416 14.842 41.5416 15.118C41.5416 15.394 41.6636 15.532 41.9076 15.532C42.1076 15.532 42.3196 15.5 42.5436 15.436L42.6516 15.4V14.602L41.9556 14.668ZM45.7346 13.558H44.9066V14.878C44.9066 15.122 44.9246 15.284 44.9606 15.364C44.9966 15.444 45.0886 15.484 45.2366 15.484L45.7286 15.466L45.7586 15.988C45.4906 16.04 45.2866 16.066 45.1466 16.066C44.8066 16.066 44.5726 15.988 44.4446 15.832C44.3206 15.676 44.2586 15.382 44.2586 14.95V13.558H43.8746V13H44.2586V12.13H44.9066V13H45.7346V13.558Z" fill="#2B2929"/>
<defs>
<radialGradient id="paint0_angular_4_16" cx="0" cy="0" r="1" gradientUnits="userSpaceOnUse" gradientTransform="translate(39 20.5) rotate(90) scale(20.5 39)">
<stop stop-color="#3532F8" stop-opacity="0.7"/>
<stop offset="1" stop-color="#DF2F2F" stop-opacity="0.75"/>
</radialGradient>
</defs>
</svg>
